<?xml version="1.0" encoding="UTF-8" standalone="no"?>
<svg width="362.656mm" height="101.6mm"
 xmlns="http://www.w3.org/2000/svg" xmlns:xlink="http://www.w3.org/1999/xlink"  version="1.2" baseProfile="tiny">
<title>Qt SVG Document</title>
<desc>Generated with Qt</desc>
<defs>
</defs>
<g fill="none" stroke="black" stroke-width="1" fill-rule="evenodd" stroke-linecap="square" stroke-linejoin="bevel" >

<g fill="none" stroke="#000000" stroke-opacity="1" stroke-width="1" stroke-linecap="square" stroke-linejoin="bevel" transform="matrix(1,0,0,1,0,0)"
font-family="Ubuntu" font-size="11" font-weight="400" font-style="normal" 
>
</g>

<g fill="none" stroke="#000000" stroke-opacity="1" stroke-width="1" stroke-linecap="square" stroke-linejoin="bevel" transform="matrix(1,0,0,1,0,0)"
font-family="Ubuntu" font-size="11" font-weight="400" font-style="normal" 
>
</g>

<g fill="none" stroke="#000000" stroke-opacity="1" stroke-width="1" stroke-linecap="square" stroke-linejoin="bevel" transform="matrix(2,0,0,2,2.84217e-14,288)"
font-family="Ubuntu" font-size="11" font-weight="400" font-style="normal" 
>
</g>

<g fill="#ffffff" fill-opacity="1" stroke="none" transform="matrix(2,0,0,2,2.84217e-14,288)"
font-family="Ubuntu" font-size="11" font-weight="400" font-style="normal" 
>
<rect x="-1.42109e-14" y="-144" width="513.862" height="144"/>
</g>

<g fill="none" stroke="#000000" stroke-opacity="1" stroke-width="1" stroke-linecap="square" stroke-linejoin="bevel" transform="matrix(2,0,0,2,2.84217e-14,288)"
font-family="Ubuntu" font-size="11" font-weight="400" font-style="normal" 
>
</g>

<g fill="none" stroke="#000000" stroke-opacity="1" stroke-width="1" stroke-linecap="square" stroke-linejoin="bevel" transform="matrix(2,0,0,2,2.84217e-14,288)"
font-family="Ubuntu" font-size="11" font-weight="400" font-style="normal" 
>
</g>

<g fill="none" stroke="#000000" stroke-opacity="1" stroke-width="1" stroke-linecap="square" stroke-linejoin="bevel" transform="matrix(2,0,0,2,2.84217e-14,288)"
font-family="Ubuntu" font-size="11" font-weight="400" font-style="normal" 
>
</g>

<g fill="none" stroke="#000000" stroke-opacity="1" stroke-width="1" stroke-linecap="square" stroke-linejoin="bevel" transform="matrix(2,0,0,2,2.84217e-14,288)"
font-family="Ubuntu" font-size="11" font-weight="400" font-style="normal" 
>
</g>

<g fill="none" stroke="#000000" stroke-opacity="1" stroke-width="1" stroke-linecap="square" stroke-linejoin="round" transform="matrix(2,0,0,2,2.84217e-14,288)"
font-family="Ubuntu" font-size="11" font-weight="400" font-style="normal" 
>
<rect x="243.281" y="-35.5" width="77.9984" height="35"/>
</g>

<g fill="none" stroke="#000000" stroke-opacity="1" stroke-width="1" stroke-linecap="square" stroke-linejoin="bevel" transform="matrix(2,0,0,2,2.84217e-14,288)"
font-family="Ubuntu" font-size="11" font-weight="400" font-style="normal" 
>
</g>

<g fill="none" stroke="#000000" stroke-opacity="1" stroke-width="1" stroke-linecap="square" stroke-linejoin="bevel" transform="matrix(2,0,0,2,515.326,238)"
font-family="Ubuntu" font-size="11" font-weight="400" font-style="normal" 
>
</g>

<g fill="none" stroke="#000000" stroke-opacity="1" stroke-width="1" stroke-linecap="square" stroke-linejoin="bevel" transform="matrix(2,0,0,2,515.326,238)"
font-family="sans" font-size="11" font-weight="100" font-style="normal" 
>
</g>

<g fill="#000000" fill-opacity="1" stroke="#000000" stroke-opacity="1" stroke-width="1" stroke-linecap="square" stroke-linejoin="round" transform="matrix(2,0,0,2,515.326,238)"
font-family="sans" font-size="11" font-weight="100" font-style="normal" 
>
<path vector-effect="none" fill-rule="nonzero" d="M2.96875,2.98438 L3.53125,2.98438 L0.734375,12.0156 L0.171875,12.0156 L2.96875,2.98438 M9.0625,5.28125 L9.0625,5.79688 C8.77083,5.61979 8.52604,5.5 8.32813,5.4375 C7.99479,5.33333 7.67708,5.28125 7.375,5.28125 C6.51042,5.28125 5.89063,5.5026 5.51563,5.94531 C5.14063,6.38802 4.95313,7.07292 4.95313,8 C4.95313,8.9375 5.14063,9.6276 5.51563,10.0703 C5.89063,10.513 6.51042,10.7344 7.375,10.7344 C7.66667,10.7344 7.94792,10.6927 8.21875,10.6094 C8.51042,10.5365 8.79167,10.4219 9.0625,10.2656 L9.0625,10.7656 C8.79167,10.901 8.51042,11 8.21875,11.0625 C7.91667,11.125 7.61979,11.1563 7.32813,11.1563 C6.45313,11.1563 5.75521,10.9167 5.23438,10.4375 C4.71354,9.95833 4.45313,9.14323 4.45313,7.99219 C4.45313,6.84115 4.71354,6.02604 5.23438,5.54688 C5.75521,5.07813 6.45313,4.84375 7.32813,4.84375 C7.61979,4.84375 7.92708,4.88542 8.25,4.96875 C8.57292,5.04167 8.84375,5.14583 9.0625,5.28125 M15.3281,6.29688 C15.5156,5.80729 15.8073,5.44271 16.2031,5.20313 C16.5885,4.96354 17.0417,4.84375 17.5625,4.84375 C18.0833,4.84375 18.5,5.02604 18.8125,5.39063 C19.1354,5.75521 19.2969,6.41667 19.2969,7.375 L19.2969,11 L18.8125,11 L18.8125,7.40625 C18.8125,6.57292 18.6979,6.01042 18.4688,5.71875 C18.2396,5.42708 17.9323,5.28125 17.5469,5.28125 C16.9948,5.28125 16.5104,5.44792 16.0938,5.78125 C15.625,6.15625 15.3906,6.76042 15.3906,7.59375 L15.3906,11 L14.9063,11 L14.9063,7.40625 C14.9063,6.60417 14.7943,6.04948 14.5703,5.74219 C14.3464,5.4349 14.0365,5.28125 13.6406,5.28125 C13.0885,5.28125 12.6042,5.45313 12.1875,5.79688 C11.7188,6.16146 11.4844,6.76042 11.4844,7.59375 L11.4844,11 L11,11 L11,4.98438 L11.4844,4.98438 L11.4844,6.10938 C11.6615,5.71354 11.9375,5.40104 12.3125,5.17188 C12.6771,4.95313 13.1302,4.84375 13.6719,4.84375 C14.026,4.84375 14.3646,4.95833 14.6875,5.1875 C14.9375,5.375 15.151,5.74479 15.3281,6.29688 M25.7031,6.35938 L25.7031,2.64063 L26.1719,2.64063 L26.1719,11 L25.7031,11 L25.7031,9.64063 C25.474,10.1615 25.224,10.5156 24.9531,10.7031 C24.5573,11.0052 24.1771,11.1563 23.8125,11.1563 C23.1042,11.1563 22.513,10.8672 22.0391,10.2891 C21.5651,9.71094 21.3281,8.94792 21.3281,8 C21.3281,7.05208 21.5651,6.28906 22.0391,5.71094 C22.513,5.13281 23.1042,4.84375 23.8125,4.84375 C24.1771,4.84375 24.5573,4.98958 24.9531,5.28125 C25.224,5.47917 25.474,5.83854 25.7031,6.35938 M22.4688,5.90625 C22.0521,6.32292 21.8438,7.02083 21.8438,8 C21.8438,8.97917 22.0521,9.67708 22.4688,10.0938 C22.8854,10.5104 23.3229,10.7188 23.7813,10.7188 C24.2292,10.7188 24.6615,10.5104 25.0781,10.0938 C25.4844,9.67708 25.6875,8.97917 25.6875,8 C25.6875,7.02083 25.4844,6.32292 25.0781,5.90625 C24.6615,5.48958 24.2292,5.28125 23.7813,5.28125 C23.3229,5.28125 22.8854,5.48958 22.4688,5.90625 M33.0313,13.1719 L33.0313,13.5938 L27.3125,13.5938 L27.3125,13.1719 L33.0313,13.1719 M33.625,4.98438 L34.1406,4.98438 L36.1719,10.4531 L38.2188,4.98438 L38.7344,4.98438 L36.5,11 L35.8594,11 L33.625,4.98438 M45.3594,7.75 L45.3594,8.0625 L40.7969,8.0625 C40.7969,9.02083 40.9844,9.69792 41.3594,10.0938 C41.776,10.5208 42.3906,10.7344 43.2031,10.7344 C43.4219,10.7344 43.7083,10.6875 44.0625,10.5938 C44.4167,10.5 44.7708,10.3594 45.125,10.1719 L45.125,10.6875 C44.7708,10.8438 44.4089,10.9609 44.0391,11.0391 C43.6693,11.1172 43.375,11.1563 43.1563,11.1563 C42.2292,11.1563 41.5313,10.9063 41.0625,10.4063 C40.5521,9.875 40.2969,9.09375 40.2969,8.0625 C40.2969,6.98958 40.526,6.1875 40.9844,5.65625 C41.4635,5.11458 42.1302,4.84375 42.9844,4.84375 C43.7656,4.84375 44.3594,5.10417 44.7656,5.625 C45.1615,6.16667 45.3594,6.875 45.3594,7.75 M44.8594,7.64063 C44.8594,6.79688 44.6667,6.18229 44.2813,5.79688 C43.9688,5.45313 43.5365,5.28125 42.9844,5.28125 C42.3906,5.28125 41.8906,5.45833 41.4844,5.8125 C41.1094,6.14583 40.8854,6.75521 40.8125,7.64063 L44.8594,7.64063 M47.4375,2.64063 L47.9219,2.64063 L47.9219,11 L47.4375,11 L47.4375,2.64063"/>
</g>

<g fill="none" stroke="#000000" stroke-opacity="1" stroke-width="1" stroke-linecap="square" stroke-linejoin="bevel" transform="matrix(2,0,0,2,515.326,238)"
font-family="sans" font-size="11" font-weight="100" font-style="normal" 
>
</g>

<g fill="none" stroke="#000000" stroke-opacity="1" stroke-width="1" stroke-linecap="square" stroke-linejoin="bevel" transform="matrix(2,0,0,2,515.326,238)"
font-family="Ubuntu" font-size="11" font-weight="400" font-style="normal" 
>
</g>

<g fill="none" stroke="#000000" stroke-opacity="1" stroke-width="1" stroke-linecap="square" stroke-linejoin="bevel" transform="matrix(2,0,0,2,2.84217e-14,288)"
font-family="Ubuntu" font-size="11" font-weight="400" font-style="normal" 
>
</g>

<g fill="none" stroke="#000000" stroke-opacity="1" stroke-width="1" stroke-linecap="square" stroke-linejoin="bevel" transform="matrix(2,0,0,2,2.84217e-14,288)"
font-family="Ubuntu" font-size="11" font-weight="400" font-style="normal" 
>
</g>

<g fill="none" stroke="#000000" stroke-opacity="1" stroke-width="1" stroke-linecap="square" stroke-linejoin="bevel" transform="matrix(2,0,0,2,2.84217e-14,288)"
font-family="Ubuntu" font-size="11" font-weight="400" font-style="normal" 
>
</g>

<g fill="none" stroke="#000000" stroke-opacity="1" stroke-width="1" stroke-linecap="square" stroke-linejoin="round" transform="matrix(2,0,0,2,2.84217e-14,288)"
font-family="Ubuntu" font-size="11" font-weight="400" font-style="normal" 
>
<ellipse cx="424.82" cy="-18" rx="88.5424" ry="17.5"/>
</g>

<g fill="none" stroke="#000000" stroke-opacity="1" stroke-width="1" stroke-linecap="square" stroke-linejoin="bevel" transform="matrix(2,0,0,2,2.84217e-14,288)"
font-family="Ubuntu" font-size="11" font-weight="400" font-style="normal" 
>
</g>

<g fill="none" stroke="#000000" stroke-opacity="1" stroke-width="1" stroke-linecap="square" stroke-linejoin="bevel" transform="matrix(2,0,0,2,756.968,238)"
font-family="Ubuntu" font-size="11" font-weight="400" font-style="normal" 
>
</g>

<g fill="none" stroke="#000000" stroke-opacity="1" stroke-width="1" stroke-linecap="square" stroke-linejoin="bevel" transform="matrix(2,0,0,2,756.968,238)"
font-family="sans" font-size="11" font-weight="100" font-style="normal" 
>
</g>

<g fill="#000000" fill-opacity="1" stroke="#000000" stroke-opacity="1" stroke-width="1" stroke-linecap="square" stroke-linejoin="round" transform="matrix(2,0,0,2,756.968,238)"
font-family="sans" font-size="11" font-weight="100" font-style="normal" 
>
<path vector-effect="none" fill-rule="nonzero" d="M2.96875,2.98438 L3.53125,2.98438 L0.734375,12.0156 L0.171875,12.0156 L2.96875,2.98438 M8.35938,5.15625 L8.35938,5.70313 C8.00521,5.50521 7.78646,5.39583 7.70313,5.375 C7.45313,5.32292 7.14063,5.29167 6.76563,5.28125 C6.20313,5.28125 5.76042,5.39063 5.4375,5.60938 C5.1875,5.79688 5.0625,6.11458 5.0625,6.5625 C5.0625,6.875 5.18229,7.11458 5.42188,7.28125 C5.66146,7.46875 6.01042,7.61458 6.46875,7.71875 L6.8125,7.78125 C7.38542,7.90625 7.81771,8.08333 8.10938,8.3125 C8.45313,8.58333 8.63021,8.92708 8.64063,9.34375 C8.64063,9.90625 8.47396,10.349 8.14063,10.6719 C7.78646,10.9948 7.20833,11.1563 6.40625,11.1563 C5.96875,11.1563 5.63542,11.125 5.40625,11.0625 C5.125,10.9896 4.83333,10.8958 4.53125,10.7813 L4.53125,10.1563 C4.96875,10.4063 5.25,10.5521 5.375,10.5938 C5.72917,10.6875 6.08333,10.7344 6.4375,10.7344 C7.01042,10.7344 7.4375,10.6146 7.71875,10.375 C8,10.125 8.14063,9.80729 8.14063,9.42188 C8.14063,9.08854 8.04688,8.84896 7.85938,8.70313 C7.58854,8.48438 7.16146,8.30729 6.57813,8.17188 L6.23438,8.09375 C5.72396,7.96875 5.33854,7.80208 5.07813,7.59375 C4.74479,7.32292 4.57813,6.99479 4.57813,6.60938 C4.57813,5.98438 4.77865,5.53385 5.17969,5.25781 C5.58073,4.98177 6.07292,4.84375 6.65625,4.84375 C7.15625,4.84375 7.5,4.86979 7.6875,4.92188 C7.91667,4.98438 8.14063,5.0625 8.35938,5.15625 M11.1719,2.64063 L11.6719,2.64063 L11.6719,7.71875 L14.6563,4.98438 L15.3281,4.98438 L12.2188,7.82813 L15.4375,11 L14.7969,11 L11.6719,7.92188 L11.6719,11 L11.1719,11 L11.1719,2.64063 M17.0156,4.98438 L17.5156,4.98438 L17.5156,11 L17.0156,11 L17.0156,4.98438 M17.0156,2.64063 L17.5156,2.64063 L17.5156,3.3125 L17.0156,3.3125 L17.0156,2.64063 M24.0781,6.35938 L24.0781,2.64063 L24.5469,2.64063 L24.5469,11 L24.0781,11 L24.0781,9.64063 C23.849,10.1615 23.599,10.5156 23.3281,10.7031 C22.9323,11.0052 22.5521,11.1563 22.1875,11.1563 C21.4792,11.1563 20.888,10.8672 20.4141,10.2891 C19.9401,9.71094 19.7031,8.94792 19.7031,8 C19.7031,7.05208 19.9401,6.28906 20.4141,5.71094 C20.888,5.13281 21.4792,4.84375 22.1875,4.84375 C22.5521,4.84375 22.9323,4.98958 23.3281,5.28125 C23.599,5.47917 23.849,5.83854 24.0781,6.35938 M20.8438,5.90625 C20.4271,6.32292 20.2188,7.02083 20.2188,8 C20.2188,8.97917 20.4271,9.67708 20.8438,10.0938 C21.2604,10.5104 21.6979,10.7188 22.1563,10.7188 C22.6042,10.7188 23.0365,10.5104 23.4531,10.0938 C23.8594,9.67708 24.0625,8.97917 24.0625,8 C24.0625,7.02083 23.8594,6.32292 23.4531,5.90625 C23.0365,5.48958 22.6042,5.28125 22.1563,5.28125 C21.6979,5.28125 21.2604,5.48958 20.8438,5.90625 M31.4063,13.1719 L31.4063,13.5938 L25.6875,13.5938 L25.6875,13.1719 L31.4063,13.1719 M35.9531,5.15625 L35.9531,5.70313 C35.599,5.50521 35.3802,5.39583 35.2969,5.375 C35.0469,5.32292 34.7344,5.29167 34.3594,5.28125 C33.7969,5.28125 33.3542,5.39063 33.0313,5.60938 C32.7813,5.79688 32.6563,6.11458 32.6563,6.5625 C32.6563,6.875 32.776,7.11458 33.0156,7.28125 C33.2552,7.46875 33.6042,7.61458 34.0625,7.71875 L34.4063,7.78125 C34.9792,7.90625 35.4115,8.08333 35.7031,8.3125 C36.0469,8.58333 36.224,8.92708 36.2344,9.34375 C36.2344,9.90625 36.0677,10.349 35.7344,10.6719 C35.3802,10.9948 34.8021,11.1563 34,11.1563 C33.5625,11.1563 33.2292,11.125 33,11.0625 C32.7188,10.9896 32.4271,10.8958 32.125,10.7813 L32.125,10.1563 C32.5625,10.4063 32.8438,10.5521 32.9688,10.5938 C33.3229,10.6875 33.6771,10.7344 34.0313,10.7344 C34.6042,10.7344 35.0313,10.6146 35.3125,10.375 C35.5938,10.125 35.7344,9.80729 35.7344,9.42188 C35.7344,9.08854 35.6406,8.84896 35.4531,8.70313 C35.1823,8.48438 34.7552,8.30729 34.1719,8.17188 L33.8281,8.09375 C33.3177,7.96875 32.9323,7.80208 32.6719,7.59375 C32.3385,7.32292 32.1719,6.99479 32.1719,6.60938 C32.1719,5.98438 32.3724,5.53385 32.7734,5.25781 C33.1745,4.98177 33.6667,4.84375 34.25,4.84375 C34.75,4.84375 35.0938,4.86979 35.2813,4.92188 C35.5104,4.98438 35.7344,5.0625 35.9531,5.15625 M38.7813,3.28125 L38.7813,4.98438 L40.8125,4.98438 L40.8125,5.40625 L38.7813,5.40625 L38.7813,9.01563 C38.7813,9.47396 38.8385,9.79688 38.9531,9.98438 C39.2031,10.3802 39.5625,10.5781 40.0313,10.5781 L40.8125,10.5781 L40.8125,11 L40.0469,11 C39.5573,11 39.1406,10.8568 38.7969,10.5703 C38.4531,10.2839 38.2813,9.76563 38.2813,9.01563 L38.2813,5.40625 L37.5625,5.40625 L37.5625,4.98438 L38.2813,4.98438 L38.2813,3.28125 L38.7813,3.28125 M47.2656,7.75 L47.2656,8.0625 L42.7031,8.0625 C42.7031,9.02083 42.8906,9.69792 43.2656,10.0938 C43.6823,10.5208 44.2969,10.7344 45.1094,10.7344 C45.3281,10.7344 45.6146,10.6875 45.9688,10.5938 C46.3229,10.5 46.6771,10.3594 47.0313,10.1719 L47.0313,10.6875 C46.6771,10.8438 46.3151,10.9609 45.9453,11.0391 C45.5755,11.1172 45.2813,11.1563 45.0625,11.1563 C44.1354,11.1563 43.4375,10.9063 42.9688,10.4063 C42.4583,9.875 42.2031,9.09375 42.2031,8.0625 C42.2031,6.98958 42.4323,6.1875 42.8906,5.65625 C43.3698,5.11458 44.0365,4.84375 44.8906,4.84375 C45.6719,4.84375 46.2656,5.10417 46.6719,5.625 C47.0677,6.16667 47.2656,6.875 47.2656,7.75 M46.7656,7.64063 C46.7656,6.79688 46.5729,6.18229 46.1875,5.79688 C45.875,5.45313 45.4427,5.28125 44.8906,5.28125 C44.2969,5.28125 43.7969,5.45833 43.3906,5.8125 C43.0156,6.14583 42.7917,6.75521 42.7188,7.64063 L46.7656,7.64063 M54.0313,7.75 L54.0313,8.0625 L49.4688,8.0625 C49.4688,9.02083 49.6563,9.69792 50.0313,10.0938 C50.4479,10.5208 51.0625,10.7344 51.875,10.7344 C52.0938,10.7344 52.3802,10.6875 52.7344,10.5938 C53.0885,10.5 53.4427,10.3594 53.7969,10.1719 L53.7969,10.6875 C53.4427,10.8438 53.0807,10.9609 52.7109,11.0391 C52.3411,11.1172 52.0469,11.1563 51.8281,11.1563 C50.901,11.1563 50.2031,10.9063 49.7344,10.4063 C49.224,9.875 48.9688,9.09375 48.9688,8.0625 C48.9688,6.98958 49.1979,6.1875 49.6563,5.65625 C50.1354,5.11458 50.8021,4.84375 51.6563,4.84375 C52.4375,4.84375 53.0313,5.10417 53.4375,5.625 C53.8333,6.16667 54.0313,6.875 54.0313,7.75 M53.5313,7.64063 C53.5313,6.79688 53.3385,6.18229 52.9531,5.79688 C52.6406,5.45313 52.2083,5.28125 51.6563,5.28125 C51.0625,5.28125 50.5625,5.45833 50.1563,5.8125 C49.7813,6.14583 49.5573,6.75521 49.4844,7.64063 L53.5313,7.64063 M59.375,5.40625 C59.2917,5.36458 59.1823,5.33333 59.0469,5.3125 C58.9219,5.29167 58.7708,5.28125 58.5938,5.28125 C57.9792,5.28125 57.474,5.50521 57.0781,5.95313 C56.7552,6.31771 56.5938,6.94271 56.5938,7.82813 L56.5938,11 L56.1094,11 L56.1094,4.98438 L56.5938,4.98438 L56.5938,6.10938 C56.7604,5.78646 56.9896,5.51563 57.2813,5.29688 C57.6771,4.99479 58.1458,4.84375 58.6875,4.84375 C58.8333,4.84375 58.9583,4.84896 59.0625,4.85938 C59.1667,4.85938 59.2708,4.86979 59.375,4.89063 L59.375,5.40625 M64.9844,13.1719 L64.9844,13.5938 L59.2656,13.5938 L59.2656,13.1719 L64.9844,13.1719 M70.125,6.35938 L70.125,2.64063 L70.5938,2.64063 L70.5938,11 L70.125,11 L70.125,9.64063 C69.8958,10.1615 69.6458,10.5156 69.375,10.7031 C68.9792,11.0052 68.599,11.1563 68.2344,11.1563 C67.526,11.1563 66.9349,10.8672 66.4609,10.2891 C65.987,9.71094 65.75,8.94792 65.75,8 C65.75,7.05208 65.987,6.28906 66.4609,5.71094 C66.9349,5.13281 67.526,4.84375 68.2344,4.84375 C68.599,4.84375 68.9792,4.98958 69.375,5.28125 C69.6458,5.47917 69.8958,5.83854 70.125,6.35938 M66.8906,5.90625 C66.474,6.32292 66.2656,7.02083 66.2656,8 C66.2656,8.97917 66.474,9.67708 66.8906,10.0938 C67.3073,10.5104 67.7448,10.7188 68.2031,10.7188 C68.651,10.7188 69.0833,10.5104 69.5,10.0938 C69.9063,9.67708 70.1094,8.97917 70.1094,8 C70.1094,7.02083 69.9063,6.32292 69.5,5.90625 C69.0833,5.48958 68.651,5.28125 68.2031,5.28125 C67.7448,5.28125 67.3073,5.48958 66.8906,5.90625 M76.3594,5.40625 C76.276,5.36458 76.1667,5.33333 76.0313,5.3125 C75.9063,5.29167 75.7552,5.28125 75.5781,5.28125 C74.9635,5.28125 74.4583,5.50521 74.0625,5.95313 C73.7396,6.31771 73.5781,6.94271 73.5781,7.82813 L73.5781,11 L73.0938,11 L73.0938,4.98438 L73.5781,4.98438 L73.5781,6.10938 C73.7448,5.78646 73.974,5.51563 74.2656,5.29688 C74.6615,4.99479 75.1302,4.84375 75.6719,4.84375 C75.8177,4.84375 75.9427,4.84896 76.0469,4.85938 C76.151,4.85938 76.2552,4.86979 76.3594,4.89063 L76.3594,5.40625 M77.5938,4.98438 L78.0938,4.98438 L78.0938,11 L77.5938,11 L77.5938,4.98438 M77.5938,2.64063 L78.0938,2.64063 L78.0938,3.3125 L77.5938,3.3125 L77.5938,2.64063 M80.1094,4.98438 L80.625,4.98438 L82.6563,10.4531 L84.7031,4.98438 L85.2188,4.98438 L82.9844,11 L82.3438,11 L80.1094,4.98438 M91.8438,7.75 L91.8438,8.0625 L87.2813,8.0625 C87.2813,9.02083 87.4688,9.69792 87.8438,10.0938 C88.2604,10.5208 88.875,10.7344 89.6875,10.7344 C89.9063,10.7344 90.1927,10.6875 90.5469,10.5938 C90.901,10.5 91.2552,10.3594 91.6094,10.1719 L91.6094,10.6875 C91.2552,10.8438 90.8932,10.9609 90.5234,11.0391 C90.1536,11.1172 89.8594,11.1563 89.6406,11.1563 C88.7135,11.1563 88.0156,10.9063 87.5469,10.4063 C87.0365,9.875 86.7813,9.09375 86.7813,8.0625 C86.7813,6.98958 87.0104,6.1875 87.4688,5.65625 C87.9479,5.11458 88.6146,4.84375 89.4688,4.84375 C90.25,4.84375 90.8438,5.10417 91.25,5.625 C91.6458,6.16667 91.8438,6.875 91.8438,7.75 M91.3438,7.64063 C91.3438,6.79688 91.151,6.18229 90.7656,5.79688 C90.4531,5.45313 90.0208,5.28125 89.4688,5.28125 C88.875,5.28125 88.375,5.45833 87.9688,5.8125 C87.5938,6.14583 87.3698,6.75521 87.2969,7.64063 L91.3438,7.64063"/>
</g>

<g fill="none" stroke="#000000" stroke-opacity="1" stroke-width="1" stroke-linecap="square" stroke-linejoin="bevel" transform="matrix(2,0,0,2,756.968,238)"
font-family="sans" font-size="11" font-weight="100" font-style="normal" 
>
</g>

<g fill="none" stroke="#000000" stroke-opacity="1" stroke-width="1" stroke-linecap="square" stroke-linejoin="bevel" transform="matrix(2,0,0,2,756.968,238)"
font-family="Ubuntu" font-size="11" font-weight="400" font-style="normal" 
>
</g>

<g fill="none" stroke="#000000" stroke-opacity="1" stroke-width="1" stroke-linecap="square" stroke-linejoin="bevel" transform="matrix(2,0,0,2,2.84217e-14,288)"
font-family="Ubuntu" font-size="11" font-weight="400" font-style="normal" 
>
</g>

<g fill="none" stroke="#000000" stroke-opacity="1" stroke-width="1" stroke-linecap="square" stroke-linejoin="bevel" transform="matrix(2,0,0,2,2.84217e-14,288)"
font-family="Ubuntu" font-size="11" font-weight="400" font-style="normal" 
>
</g>

<g fill="none" stroke="#000000" stroke-opacity="1" stroke-width="1" stroke-linecap="square" stroke-linejoin="bevel" transform="matrix(2,0,0,2,2.84217e-14,288)"
font-family="Ubuntu" font-size="11" font-weight="400" font-style="normal" 
>
</g>

<g fill="none" stroke="#000000" stroke-opacity="1" stroke-width="1" stroke-linecap="square" stroke-linejoin="round" transform="matrix(2,0,0,2,2.84217e-14,288)"
font-family="Ubuntu" font-size="11" font-weight="400" font-style="normal" 
>
<ellipse cx="114.39" cy="-72" rx="45.6448" ry="17.5"/>
</g>

<g fill="none" stroke="#000000" stroke-opacity="1" stroke-width="1" stroke-linecap="square" stroke-linejoin="bevel" transform="matrix(2,0,0,2,2.84217e-14,288)"
font-family="Ubuntu" font-size="11" font-weight="400" font-style="normal" 
>
</g>

<g fill="none" stroke="#000000" stroke-opacity="1" stroke-width="1" stroke-linecap="square" stroke-linejoin="bevel" transform="matrix(2,0,0,2,185.53,130)"
font-family="Ubuntu" font-size="11" font-weight="400" font-style="normal" 
>
</g>

<g fill="none" stroke="#000000" stroke-opacity="1" stroke-width="1" stroke-linecap="square" stroke-linejoin="bevel" transform="matrix(2,0,0,2,185.53,130)"
font-family="sans" font-size="11" font-weight="100" font-style="normal" 
>
</g>

<g fill="#000000" fill-opacity="1" stroke="#000000" stroke-opacity="1" stroke-width="1" stroke-linecap="square" stroke-linejoin="round" transform="matrix(2,0,0,2,185.53,130)"
font-family="sans" font-size="11" font-weight="100" font-style="normal" 
>
<path vector-effect="none" fill-rule="nonzero" d="M2.96875,2.98438 L3.53125,2.98438 L0.734375,12.0156 L0.171875,12.0156 L2.96875,2.98438 M8.95313,7.92188 C8.95313,7.08854 8.78385,6.44271 8.44531,5.98438 C8.10677,5.52604 7.63021,5.29688 7.01563,5.29688 C6.41146,5.29688 5.9401,5.52604 5.60156,5.98438 C5.26302,6.44271 5.09375,7.08854 5.09375,7.92188 C5.09375,8.75521 5.26302,9.40104 5.60156,9.85938 C5.9401,10.3177 6.41146,10.5469 7.01563,10.5469 C7.63021,10.5469 8.10677,10.3177 8.44531,9.85938 C8.78385,9.40104 8.95313,8.75521 8.95313,7.92188 M9.4375,10.25 C9.4375,11.5 9.20052,12.3177 8.72656,12.7031 C8.2526,13.0885 7.65104,13.2813 6.92188,13.2813 C6.56771,13.2813 6.23958,13.2604 5.9375,13.2188 C5.625,13.1563 5.32292,13.0729 5.03125,12.9688 L5.03125,12.4063 C5.32292,12.5625 5.60938,12.6797 5.89063,12.7578 C6.17188,12.8359 6.46354,12.875 6.76563,12.875 C7.35938,12.875 7.8724,12.7474 8.30469,12.4922 C8.73698,12.237 8.95313,11.5521 8.95313,10.4375 L8.95313,9.48438 C8.79688,9.90104 8.59375,10.2292 8.34375,10.4688 C7.94792,10.8229 7.50521,11 7.01563,11 C6.25521,11 5.66146,10.7318 5.23438,10.1953 C4.80729,9.65885 4.59375,8.90104 4.59375,7.92188 C4.59375,6.94271 4.80729,6.1849 5.23438,5.64844 C5.66146,5.11198 6.25521,4.84375 7.01563,4.84375 C7.50521,4.84375 7.92188,4.99479 8.26563,5.29688 C8.53646,5.53646 8.76563,5.85938 8.95313,6.26563 L8.95313,4.98438 L9.4375,4.98438 L9.4375,10.25 M13.9531,7.60938 C13.151,7.60938 12.5755,7.75 12.2266,8.03125 C11.8776,8.3125 11.7031,8.72396 11.7031,9.26563 C11.7031,9.79688 11.849,10.1745 12.1406,10.3984 C12.4323,10.6224 12.776,10.7344 13.1719,10.7344 C13.9219,10.7344 14.4635,10.4167 14.7969,9.78125 C15.1302,9.13542 15.2969,8.53125 15.2969,7.96875 L15.2969,7.60938 L13.9531,7.60938 M15.7969,7.5625 L15.7969,11 L15.2969,11 L15.2969,9.35938 C15.026,10.1615 14.6615,10.6719 14.2031,10.8906 C13.849,11.0677 13.4896,11.1563 13.125,11.1563 C12.5313,11.1563 12.0625,10.9948 11.7188,10.6719 C11.375,10.349 11.2031,9.8776 11.2031,9.25781 C11.2031,8.63802 11.4271,8.14063 11.875,7.76563 C12.3229,7.39063 13.0521,7.20313 14.0625,7.20313 L15.2969,7.20313 L15.2969,7.10938 C15.2969,6.57813 15.1406,6.14063 14.8281,5.79688 C14.5365,5.45313 14.0417,5.28125 13.3438,5.28125 C13,5.28125 12.651,5.34375 12.2969,5.46875 C12.0677,5.55208 11.7656,5.71875 11.3906,5.96875 L11.3906,5.4375 C11.7135,5.23958 12.0156,5.09896 12.2969,5.01563 C12.6927,4.90104 13.0729,4.84375 13.4375,4.84375 C14.1563,4.84375 14.7448,5.05729 15.2031,5.48438 C15.599,5.84896 15.7969,6.54167 15.7969,7.5625 M17.6406,4.98438 L22.3281,4.98438 L22.3281,5.54688 L17.9844,10.5781 L22.3281,10.5781 L22.3281,11 L17.5,11 L17.5,10.4531 L21.8438,5.40625 L17.6406,5.40625 L17.6406,4.98438 M28.7344,7.75 L28.7344,8.0625 L24.1719,8.0625 C24.1719,9.02083 24.3594,9.69792 24.7344,10.0938 C25.151,10.5208 25.7656,10.7344 26.5781,10.7344 C26.7969,10.7344 27.0833,10.6875 27.4375,10.5938 C27.7917,10.5 28.1458,10.3594 28.5,10.1719 L28.5,10.6875 C28.1458,10.8438 27.7839,10.9609 27.4141,11.0391 C27.0443,11.1172 26.75,11.1563 26.5313,11.1563 C25.6042,11.1563 24.9063,10.9063 24.4375,10.4063 C23.9271,9.875 23.6719,9.09375 23.6719,8.0625 C23.6719,6.98958 23.901,6.1875 24.3594,5.65625 C24.8385,5.11458 25.5052,4.84375 26.3594,4.84375 C27.1406,4.84375 27.7344,5.10417 28.1406,5.625 C28.5365,6.16667 28.7344,6.875 28.7344,7.75 M28.2344,7.64063 C28.2344,6.79688 28.0417,6.18229 27.6563,5.79688 C27.3438,5.45313 26.9115,5.28125 26.3594,5.28125 C25.7656,5.28125 25.2656,5.45833 24.8594,5.8125 C24.4844,6.14583 24.2604,6.75521 24.1875,7.64063 L28.2344,7.64063 M34.5313,10.0938 C34.9479,9.67708 35.1563,8.97917 35.1563,8 C35.1563,7.02083 34.9479,6.32292 34.5313,5.90625 C34.1146,5.48958 33.6771,5.28125 33.2188,5.28125 C32.7708,5.28125 32.3385,5.48958 31.9219,5.90625 C31.5156,6.32292 31.3125,7.02083 31.3125,8 C31.3125,8.97917 31.5156,9.67708 31.9219,10.0938 C32.3385,10.5104 32.7708,10.7188 33.2188,10.7188 C33.6771,10.7188 34.1146,10.5104 34.5313,10.0938 M31.2969,6.35938 C31.526,5.83854 31.7708,5.47917 32.0313,5.28125 C32.4375,4.98958 32.8229,4.84375 33.1875,4.84375 C33.8958,4.84375 34.487,5.13281 34.9609,5.71094 C35.4349,6.28906 35.6719,7.05208 35.6719,8 C35.6719,8.94792 35.4349,9.71094 34.9609,10.2891 C34.487,10.8672 33.8958,11.1563 33.1875,11.1563 C32.8229,11.1563 32.4375,11.0052 32.0313,10.7031 C31.7708,10.5156 31.526,10.1615 31.2969,9.64063 L31.2969,11 L30.8125,11 L30.8125,2.64063 L31.2969,2.64063 L31.2969,6.35938 M41.3594,6.01563 C41.0052,5.52604 40.5208,5.28125 39.9063,5.28125 C39.2917,5.28125 38.8073,5.52604 38.4531,6.01563 C38.099,6.49479 37.9219,7.15104 37.9219,7.98438 C37.9219,8.83854 38.099,9.51042 38.4531,10 C38.8073,10.4896 39.2917,10.7344 39.9063,10.7344 C40.5208,10.7344 41.0052,10.4896 41.3594,10 C41.7135,9.5 41.8906,8.82813 41.8906,7.98438 C41.8906,7.16146 41.7135,6.50521 41.3594,6.01563 M39.9063,4.84375 C40.6667,4.84375 41.2708,5.13021 41.7188,5.70313 C42.1667,6.27604 42.3906,7.03646 42.3906,7.98438 C42.3906,8.97396 42.1667,9.75521 41.7188,10.3281 C41.2708,10.901 40.6667,11.1875 39.9063,11.1875 C39.125,11.1875 38.5104,10.901 38.0625,10.3281 C37.625,9.75521 37.4063,8.97396 37.4063,7.98438 C37.4063,7.02604 37.6302,6.26302 38.0781,5.69531 C38.526,5.1276 39.1354,4.84375 39.9063,4.84375 "/>
</g>

<g fill="none" stroke="#000000" stroke-opacity="1" stroke-width="1" stroke-linecap="square" stroke-linejoin="bevel" transform="matrix(2,0,0,2,185.53,130)"
font-family="sans" font-size="11" font-weight="100" font-style="normal" 
>
</g>

<g fill="none" stroke="#000000" stroke-opacity="1" stroke-width="1" stroke-linecap="square" stroke-linejoin="bevel" transform="matrix(2,0,0,2,185.53,130)"
font-family="Ubuntu" font-size="11" font-weight="400" font-style="normal" 
>
</g>

<g fill="none" stroke="#000000" stroke-opacity="1" stroke-width="1" stroke-linecap="square" stroke-linejoin="bevel" transform="matrix(2,0,0,2,2.84217e-14,288)"
font-family="Ubuntu" font-size="11" font-weight="400" font-style="normal" 
>
</g>

<g fill="none" stroke="#000000" stroke-opacity="1" stroke-width="1" stroke-linecap="square" stroke-linejoin="bevel" transform="matrix(2,0,0,2,2.84217e-14,288)"
font-family="Ubuntu" font-size="11" font-weight="400" font-style="normal" 
>
</g>

<g fill="none" stroke="#000000" stroke-opacity="1" stroke-width="1" stroke-linecap="square" stroke-linejoin="bevel" transform="matrix(2,0,0,2,2.84217e-14,288)"
font-family="Ubuntu" font-size="11" font-weight="400" font-style="normal" 
>
</g>

<g fill="none" stroke="#000000" stroke-opacity="1" stroke-width="1" stroke-linecap="square" stroke-linejoin="round" transform="matrix(2,0,0,2,2.84217e-14,288)"
font-family="Ubuntu" font-size="11" font-weight="400" font-style="normal" 
>
<ellipse cx="114.39" cy="-18" rx="96.9916" ry="17.5"/>
</g>

<g fill="none" stroke="#000000" stroke-opacity="1" stroke-width="1" stroke-linecap="square" stroke-linejoin="bevel" transform="matrix(2,0,0,2,2.84217e-14,288)"
font-family="Ubuntu" font-size="11" font-weight="400" font-style="normal" 
>
</g>

<g fill="none" stroke="#000000" stroke-opacity="1" stroke-width="1" stroke-linecap="square" stroke-linejoin="bevel" transform="matrix(2,0,0,2,127.218,238)"
font-family="Ubuntu" font-size="11" font-weight="400" font-style="normal" 
>
</g>

<g fill="none" stroke="#000000" stroke-opacity="1" stroke-width="1" stroke-linecap="square" stroke-linejoin="bevel" transform="matrix(2,0,0,2,127.218,238)"
font-family="sans" font-size="11" font-weight="100" font-style="normal" 
>
</g>

<g fill="#000000" fill-opacity="1" stroke="#000000" stroke-opacity="1" stroke-width="1" stroke-linecap="square" stroke-linejoin="round" transform="matrix(2,0,0,2,127.218,238)"
font-family="sans" font-size="11" font-weight="100" font-style="normal" 
>
<path vector-effect="none" fill-rule="nonzero" d="M2.96875,2.98438 L3.53125,2.98438 L0.734375,12.0156 L0.171875,12.0156 L2.96875,2.98438 M8.95313,7.92188 C8.95313,7.08854 8.78385,6.44271 8.44531,5.98438 C8.10677,5.52604 7.63021,5.29688 7.01563,5.29688 C6.41146,5.29688 5.9401,5.52604 5.60156,5.98438 C5.26302,6.44271 5.09375,7.08854 5.09375,7.92188 C5.09375,8.75521 5.26302,9.40104 5.60156,9.85938 C5.9401,10.3177 6.41146,10.5469 7.01563,10.5469 C7.63021,10.5469 8.10677,10.3177 8.44531,9.85938 C8.78385,9.40104 8.95313,8.75521 8.95313,7.92188 M9.4375,10.25 C9.4375,11.5 9.20052,12.3177 8.72656,12.7031 C8.2526,13.0885 7.65104,13.2813 6.92188,13.2813 C6.56771,13.2813 6.23958,13.2604 5.9375,13.2188 C5.625,13.1563 5.32292,13.0729 5.03125,12.9688 L5.03125,12.4063 C5.32292,12.5625 5.60938,12.6797 5.89063,12.7578 C6.17188,12.8359 6.46354,12.875 6.76563,12.875 C7.35938,12.875 7.8724,12.7474 8.30469,12.4922 C8.73698,12.237 8.95313,11.5521 8.95313,10.4375 L8.95313,9.48438 C8.79688,9.90104 8.59375,10.2292 8.34375,10.4688 C7.94792,10.8229 7.50521,11 7.01563,11 C6.25521,11 5.66146,10.7318 5.23438,10.1953 C4.80729,9.65885 4.59375,8.90104 4.59375,7.92188 C4.59375,6.94271 4.80729,6.1849 5.23438,5.64844 C5.66146,5.11198 6.25521,4.84375 7.01563,4.84375 C7.50521,4.84375 7.92188,4.99479 8.26563,5.29688 C8.53646,5.53646 8.76563,5.85938 8.95313,6.26563 L8.95313,4.98438 L9.4375,4.98438 L9.4375,10.25 M16.2344,7.75 L16.2344,8.0625 L11.6719,8.0625 C11.6719,9.02083 11.8594,9.69792 12.2344,10.0938 C12.651,10.5208 13.2656,10.7344 14.0781,10.7344 C14.2969,10.7344 14.5833,10.6875 14.9375,10.5938 C15.2917,10.5 15.6458,10.3594 16,10.1719 L16,10.6875 C15.6458,10.8438 15.2839,10.9609 14.9141,11.0391 C14.5443,11.1172 14.25,11.1563 14.0313,11.1563 C13.1042,11.1563 12.4063,10.9063 11.9375,10.4063 C11.4271,9.875 11.1719,9.09375 11.1719,8.0625 C11.1719,6.98958 11.401,6.1875 11.8594,5.65625 C12.3385,5.11458 13.0052,4.84375 13.8594,4.84375 C14.6406,4.84375 15.2344,5.10417 15.6406,5.625 C16.0365,6.16667 16.2344,6.875 16.2344,7.75 M15.7344,7.64063 C15.7344,6.79688 15.5417,6.18229 15.1563,5.79688 C14.8438,5.45313 14.4115,5.28125 13.8594,5.28125 C13.2656,5.28125 12.7656,5.45833 12.3594,5.8125 C11.9844,6.14583 11.7604,6.75521 11.6875,7.64063 L15.7344,7.64063 M21.7188,5.15625 L21.7188,5.70313 C21.3646,5.50521 21.1458,5.39583 21.0625,5.375 C20.8125,5.32292 20.5,5.29167 20.125,5.28125 C19.5625,5.28125 19.1198,5.39063 18.7969,5.60938 C18.5469,5.79688 18.4219,6.11458 18.4219,6.5625 C18.4219,6.875 18.5417,7.11458 18.7813,7.28125 C19.0208,7.46875 19.3698,7.61458 19.8281,7.71875 L20.1719,7.78125 C20.7448,7.90625 21.1771,8.08333 21.4688,8.3125 C21.8125,8.58333 21.9896,8.92708 22,9.34375 C22,9.90625 21.8333,10.349 21.5,10.6719 C21.1458,10.9948 20.5677,11.1563 19.7656,11.1563 C19.3281,11.1563 18.9948,11.125 18.7656,11.0625 C18.4844,10.9896 18.1927,10.8958 17.8906,10.7813 L17.8906,10.1563 C18.3281,10.4063 18.6094,10.5521 18.7344,10.5938 C19.0885,10.6875 19.4427,10.7344 19.7969,10.7344 C20.3698,10.7344 20.7969,10.6146 21.0781,10.375 C21.3594,10.125 21.5,9.80729 21.5,9.42188 C21.5,9.08854 21.4063,8.84896 21.2188,8.70313 C20.9479,8.48438 20.5208,8.30729 19.9375,8.17188 L19.5938,8.09375 C19.0833,7.96875 18.6979,7.80208 18.4375,7.59375 C18.1042,7.32292 17.9375,6.99479 17.9375,6.60938 C17.9375,5.98438 18.138,5.53385 18.5391,5.25781 C18.9401,4.98177 19.4323,4.84375 20.0156,4.84375 C20.5156,4.84375 20.8594,4.86979 21.0469,4.92188 C21.276,4.98438 21.5,5.0625 21.7188,5.15625 M24.5469,3.28125 L24.5469,4.98438 L26.5781,4.98438 L26.5781,5.40625 L24.5469,5.40625 L24.5469,9.01563 C24.5469,9.47396 24.6042,9.79688 24.7188,9.98438 C24.9688,10.3802 25.3281,10.5781 25.7969,10.5781 L26.5781,10.5781 L26.5781,11 L25.8125,11 C25.3229,11 24.9063,10.8568 24.5625,10.5703 C24.2188,10.2839 24.0469,9.76563 24.0469,9.01563 L24.0469,5.40625 L23.3281,5.40625 L23.3281,4.98438 L24.0469,4.98438 L24.0469,3.28125 L24.5469,3.28125 M28.2813,8.60938 L28.2813,4.98438 L28.7656,4.98438 L28.7656,8.57813 C28.7656,9.35938 28.8906,9.90885 29.1406,10.2266 C29.3906,10.5443 29.7604,10.7031 30.25,10.7031 C30.8229,10.7031 31.3125,10.5313 31.7188,10.1875 C32.125,9.84375 32.3281,9.24479 32.3281,8.39063 L32.3281,4.98438 L32.8125,4.98438 L32.8125,11 L32.3281,11 L32.3281,9.875 C32.151,10.2396 31.9167,10.5156 31.625,10.7031 C31.2083,10.9948 30.7448,11.1406 30.2344,11.1406 C29.6406,11.1406 29.1667,10.9375 28.8125,10.5313 C28.4583,10.1354 28.2813,9.49479 28.2813,8.60938 M38.5781,5.40625 C38.4948,5.36458 38.3854,5.33333 38.25,5.3125 C38.125,5.29167 37.974,5.28125 37.7969,5.28125 C37.1823,5.28125 36.6771,5.50521 36.2813,5.95313 C35.9583,6.31771 35.7969,6.94271 35.7969,7.82813 L35.7969,11 L35.3125,11 L35.3125,4.98438 L35.7969,4.98438 L35.7969,6.10938 C35.9635,5.78646 36.1927,5.51563 36.4844,5.29688 C36.8802,4.99479 37.349,4.84375 37.8906,4.84375 C38.0365,4.84375 38.1615,4.84896 38.2656,4.85938 C38.3698,4.85938 38.474,4.86979 38.5781,4.89063 L38.5781,5.40625 M44.2656,7.75 L44.2656,8.0625 L39.7031,8.0625 C39.7031,9.02083 39.8906,9.69792 40.2656,10.0938 C40.6823,10.5208 41.2969,10.7344 42.1094,10.7344 C42.3281,10.7344 42.6146,10.6875 42.9688,10.5938 C43.3229,10.5 43.6771,10.3594 44.0313,10.1719 L44.0313,10.6875 C43.6771,10.8438 43.3151,10.9609 42.9453,11.0391 C42.5755,11.1172 42.2813,11.1563 42.0625,11.1563 C41.1354,11.1563 40.4375,10.9063 39.9688,10.4063 C39.4583,9.875 39.2031,9.09375 39.2031,8.0625 C39.2031,6.98958 39.4323,6.1875 39.8906,5.65625 C40.3698,5.11458 41.0365,4.84375 41.8906,4.84375 C42.6719,4.84375 43.2656,5.10417 43.6719,5.625 C44.0677,6.16667 44.2656,6.875 44.2656,7.75 M43.7656,7.64063 C43.7656,6.79688 43.5729,6.18229 43.1875,5.79688 C42.875,5.45313 42.4427,5.28125 41.8906,5.28125 C41.2969,5.28125 40.7969,5.45833 40.3906,5.8125 C40.0156,6.14583 39.7917,6.75521 39.7188,7.64063 L43.7656,7.64063 M50.7031,13.1719 L50.7031,13.5938 L44.9844,13.5938 L44.9844,13.1719 L50.7031,13.1719 M52.3281,9.64063 L52.3281,13.2813 L51.8438,13.2813 L51.8438,4.98438 L52.3281,4.98438 L52.3281,6.35938 C52.5573,5.83854 52.8021,5.47917 53.0625,5.28125 C53.4688,4.98958 53.8542,4.84375 54.2188,4.84375 C54.9271,4.84375 55.5182,5.13281 55.9922,5.71094 C56.4661,6.28906 56.7031,7.05208 56.7031,8 C56.7031,8.94792 56.4661,9.71094 55.9922,10.2891 C55.5182,10.8672 54.9271,11.1563 54.2188,11.1563 C53.8542,11.1563 53.4688,11.0052 53.0625,10.7031 C52.8021,10.5156 52.5573,10.1615 52.3281,9.64063 M55.5625,10.0938 C55.9792,9.67708 56.1875,8.97917 56.1875,8 C56.1875,7.02083 55.9792,6.32292 55.5625,5.90625 C55.1458,5.48958 54.7083,5.28125 54.25,5.28125 C53.8021,5.28125 53.3698,5.48958 52.9531,5.90625 C52.5469,6.32292 52.3438,7.02083 52.3438,8 C52.3438,8.97917 52.5469,9.67708 52.9531,10.0938 C53.3698,10.5104 53.8021,10.7188 54.25,10.7188 C54.7083,10.7188 55.1458,10.5104 55.5625,10.0938 M58.75,8.60938 L58.75,4.98438 L59.2344,4.98438 L59.2344,8.57813 C59.2344,9.35938 59.3594,9.90885 59.6094,10.2266 C59.8594,10.5443 60.2292,10.7031 60.7188,10.7031 C61.2917,10.7031 61.7813,10.5313 62.1875,10.1875 C62.5938,9.84375 62.7969,9.24479 62.7969,8.39063 L62.7969,4.98438 L63.2813,4.98438 L63.2813,11 L62.7969,11 L62.7969,9.875 C62.6198,10.2396 62.3854,10.5156 62.0938,10.7031 C61.6771,10.9948 61.2135,11.1406 60.7031,11.1406 C60.1094,11.1406 59.6354,10.9375 59.2813,10.5313 C58.9271,10.1354 58.75,9.49479 58.75,8.60938 M69.5,10.0938 C69.9167,9.67708 70.125,8.97917 70.125,8 C70.125,7.02083 69.9167,6.32292 69.5,5.90625 C69.0833,5.48958 68.6458,5.28125 68.1875,5.28125 C67.7396,5.28125 67.3073,5.48958 66.8906,5.90625 C66.4844,6.32292 66.2813,7.02083 66.2813,8 C66.2813,8.97917 66.4844,9.67708 66.8906,10.0938 C67.3073,10.5104 67.7396,10.7188 68.1875,10.7188 C68.6458,10.7188 69.0833,10.5104 69.5,10.0938 M66.2656,6.35938 C66.4948,5.83854 66.7396,5.47917 67,5.28125 C67.4063,4.98958 67.7917,4.84375 68.1563,4.84375 C68.8646,4.84375 69.4557,5.13281 69.9297,5.71094 C70.4036,6.28906 70.6406,7.05208 70.6406,8 C70.6406,8.94792 70.4036,9.71094 69.9297,10.2891 C69.4557,10.8672 68.8646,11.1563 68.1563,11.1563 C67.7917,11.1563 67.4063,11.0052 67,10.7031 C66.7396,10.5156 66.4948,10.1615 66.2656,9.64063 L66.2656,11 L65.7813,11 L65.7813,2.64063 L66.2656,2.64063 L66.2656,6.35938 M72.75,2.64063 L73.2344,2.64063 L73.2344,11 L72.75,11 L72.75,2.64063 M75.7813,4.98438 L76.2813,4.98438 L76.2813,11 L75.7813,11 L75.7813,4.98438 M75.7813,2.64063 L76.2813,2.64063 L76.2813,3.3125 L75.7813,3.3125 L75.7813,2.64063 M82.25,5.15625 L82.25,5.70313 C81.8958,5.50521 81.6771,5.39583 81.5938,5.375 C81.3438,5.32292 81.0313,5.29167 80.6563,5.28125 C80.0938,5.28125 79.651,5.39063 79.3281,5.60938 C79.0781,5.79688 78.9531,6.11458 78.9531,6.5625 C78.9531,6.875 79.0729,7.11458 79.3125,7.28125 C79.5521,7.46875 79.901,7.61458 80.3594,7.71875 L80.7031,7.78125 C81.276,7.90625 81.7083,8.08333 82,8.3125 C82.3438,8.58333 82.5208,8.92708 82.5313,9.34375 C82.5313,9.90625 82.3646,10.349 82.0313,10.6719 C81.6771,10.9948 81.099,11.1563 80.2969,11.1563 C79.8594,11.1563 79.526,11.125 79.2969,11.0625 C79.0156,10.9896 78.724,10.8958 78.4219,10.7813 L78.4219,10.1563 C78.8594,10.4063 79.1406,10.5521 79.2656,10.5938 C79.6198,10.6875 79.974,10.7344 80.3281,10.7344 C80.901,10.7344 81.3281,10.6146 81.6094,10.375 C81.8906,10.125 82.0313,9.80729 82.0313,9.42188 C82.0313,9.08854 81.9375,8.84896 81.75,8.70313 C81.4792,8.48438 81.0521,8.30729 80.4688,8.17188 L80.125,8.09375 C79.6146,7.96875 79.2292,7.80208 78.9688,7.59375 C78.6354,7.32292 78.4688,6.99479 78.4688,6.60938 C78.4688,5.98438 78.6693,5.53385 79.0703,5.25781 C79.4714,4.98177 79.9635,4.84375 80.5469,4.84375 C81.0469,4.84375 81.3906,4.86979 81.5781,4.92188 C81.8073,4.98438 82.0313,5.0625 82.25,5.15625 M89.1094,7.375 L89.1094,11 L88.6094,11 L88.6094,7.40625 C88.6094,6.625 88.4792,6.07552 88.2188,5.75781 C87.9583,5.4401 87.5625,5.28125 87.0313,5.28125 C86.4167,5.28125 85.9323,5.45833 85.5781,5.8125 C85.224,6.16667 85.0469,6.76042 85.0469,7.59375 L85.0469,11 L84.5625,11 L84.5625,2.64063 L85.0469,2.64063 L85.0469,6.09375 C85.1615,5.79167 85.3698,5.52083 85.6719,5.28125 C86.0156,4.98958 86.5052,4.84375 87.1406,4.84375 C87.7448,4.84375 88.224,5.05729 88.5781,5.48438 C88.9323,5.91146 89.1094,6.54167 89.1094,7.375 M96.2188,7.75 L96.2188,8.0625 L91.6563,8.0625 C91.6563,9.02083 91.8438,9.69792 92.2188,10.0938 C92.6354,10.5208 93.25,10.7344 94.0625,10.7344 C94.2813,10.7344 94.5677,10.6875 94.9219,10.5938 C95.276,10.5 95.6302,10.3594 95.9844,10.1719 L95.9844,10.6875 C95.6302,10.8438 95.2682,10.9609 94.8984,11.0391 C94.5286,11.1172 94.2344,11.1563 94.0156,11.1563 C93.0885,11.1563 92.3906,10.9063 91.9219,10.4063 C91.4115,9.875 91.1563,9.09375 91.1563,8.0625 C91.1563,6.98958 91.3854,6.1875 91.8438,5.65625 C92.3229,5.11458 92.9896,4.84375 93.8438,4.84375 C94.625,4.84375 95.2188,5.10417 95.625,5.625 C96.0208,6.16667 96.2188,6.875 96.2188,7.75 M95.7188,7.64063 C95.7188,6.79688 95.526,6.18229 95.1406,5.79688 C94.8281,5.45313 94.3958,5.28125 93.8438,5.28125 C93.25,5.28125 92.75,5.45833 92.3438,5.8125 C91.9688,6.14583 91.7448,6.75521 91.6719,7.64063 L95.7188,7.64063 M101.563,5.40625 C101.479,5.36458 101.37,5.33333 101.234,5.3125 C101.109,5.29167 100.958,5.28125 100.781,5.28125 C100.167,5.28125 99.6615,5.50521 99.2656,5.95313 C98.9427,6.31771 98.7813,6.94271 98.7813,7.82813 L98.7813,11 L98.2969,11 L98.2969,4.98438 L98.7813,4.98438 L98.7813,6.10938 C98.9479,5.78646 99.1771,5.51563 99.4688,5.29688 C99.8646,4.99479 100.333,4.84375 100.875,4.84375 C101.021,4.84375 101.146,4.84896 101.25,4.85938 C101.354,4.85938 101.458,4.86979 101.563,4.89063 L101.563,5.40625"/>
</g>

<g fill="none" stroke="#000000" stroke-opacity="1" stroke-width="1" stroke-linecap="square" stroke-linejoin="bevel" transform="matrix(2,0,0,2,127.218,238)"
font-family="sans" font-size="11" font-weight="100" font-style="normal" 
>
</g>

<g fill="none" stroke="#000000" stroke-opacity="1" stroke-width="1" stroke-linecap="square" stroke-linejoin="bevel" transform="matrix(2,0,0,2,127.218,238)"
font-family="Ubuntu" font-size="11" font-weight="400" font-style="normal" 
>
</g>

<g fill="none" stroke="#000000" stroke-opacity="1" stroke-width="1" stroke-linecap="square" stroke-linejoin="bevel" transform="matrix(2,0,0,2,2.84217e-14,288)"
font-family="Ubuntu" font-size="11" font-weight="400" font-style="normal" 
>
</g>

<g fill="none" stroke="#000000" stroke-opacity="1" stroke-width="1" stroke-linecap="square" stroke-linejoin="bevel" transform="matrix(2,0,0,2,2.84217e-14,288)"
font-family="Ubuntu" font-size="11" font-weight="400" font-style="normal" 
>
</g>

<g fill="none" stroke="#000000" stroke-opacity="1" stroke-width="1" stroke-linecap="square" stroke-linejoin="bevel" transform="matrix(2,0,0,2,2.84217e-14,288)"
font-family="Ubuntu" font-size="11" font-weight="400" font-style="normal" 
>
</g>

<g fill="none" stroke="#000000" stroke-opacity="1" stroke-width="1" stroke-linecap="square" stroke-linejoin="round" transform="matrix(2,0,0,2,2.84217e-14,288)"
font-family="Ubuntu" font-size="11" font-weight="400" font-style="normal" 
>
<ellipse cx="114.39" cy="-126" rx="113.89" ry="17.5"/>
</g>

<g fill="none" stroke="#000000" stroke-opacity="1" stroke-width="1" stroke-linecap="square" stroke-linejoin="bevel" transform="matrix(2,0,0,2,2.84217e-14,288)"
font-family="Ubuntu" font-size="11" font-weight="400" font-style="normal" 
>
</g>

<g fill="none" stroke="#000000" stroke-opacity="1" stroke-width="1" stroke-linecap="square" stroke-linejoin="bevel" transform="matrix(2,0,0,2,106.28,22)"
font-family="Ubuntu" font-size="11" font-weight="400" font-style="normal" 
>
</g>

<g fill="none" stroke="#000000" stroke-opacity="1" stroke-width="1" stroke-linecap="square" stroke-linejoin="bevel" transform="matrix(2,0,0,2,106.28,22)"
font-family="sans" font-size="11" font-weight="100" font-style="normal" 
>
</g>

<g fill="#000000" fill-opacity="1" stroke="#000000" stroke-opacity="1" stroke-width="1" stroke-linecap="square" stroke-linejoin="round" transform="matrix(2,0,0,2,106.28,22)"
font-family="sans" font-size="11" font-weight="100" font-style="normal" 
>
<path vector-effect="none" fill-rule="nonzero" d="M2.96875,2.98438 L3.53125,2.98438 L0.734375,12.0156 L0.171875,12.0156 L2.96875,2.98438 M8.21875,5.40625 C8.13542,5.36458 8.02604,5.33333 7.89063,5.3125 C7.76563,5.29167 7.61458,5.28125 7.4375,5.28125 C6.82292,5.28125 6.31771,5.50521 5.92188,5.95313 C5.59896,6.31771 5.4375,6.94271 5.4375,7.82813 L5.4375,11 L4.95313,11 L4.95313,4.98438 L5.4375,4.98438 L5.4375,6.10938 C5.60417,5.78646 5.83333,5.51563 6.125,5.29688 C6.52083,4.99479 6.98958,4.84375 7.53125,4.84375 C7.67708,4.84375 7.80208,4.84896 7.90625,4.85938 C8.01042,4.85938 8.11458,4.86979 8.21875,4.89063 L8.21875,5.40625 M12.7969,6.01563 C12.4427,5.52604 11.9583,5.28125 11.3438,5.28125 C10.7292,5.28125 10.2448,5.52604 9.89063,6.01563 C9.53646,6.49479 9.35938,7.15104 9.35938,7.98438 C9.35938,8.83854 9.53646,9.51042 9.89063,10 C10.2448,10.4896 10.7292,10.7344 11.3438,10.7344 C11.9583,10.7344 12.4427,10.4896 12.7969,10 C13.151,9.5 13.3281,8.82813 13.3281,7.98438 C13.3281,7.16146 13.151,6.50521 12.7969,6.01563 M11.3438,4.84375 C12.1042,4.84375 12.7083,5.13021 13.1563,5.70313 C13.6042,6.27604 13.8281,7.03646 13.8281,7.98438 C13.8281,8.97396 13.6042,9.75521 13.1563,10.3281 C12.7083,10.901 12.1042,11.1875 11.3438,11.1875 C10.5625,11.1875 9.94792,10.901 9.5,10.3281 C9.0625,9.75521 8.84375,8.97396 8.84375,7.98438 C8.84375,7.02604 9.06771,6.26302 9.51563,5.69531 C9.96354,5.1276 10.5729,4.84375 11.3438,4.84375 M19.6563,10.0938 C20.0729,9.67708 20.2813,8.97917 20.2813,8 C20.2813,7.02083 20.0729,6.32292 19.6563,5.90625 C19.2396,5.48958 18.8021,5.28125 18.3438,5.28125 C17.8958,5.28125 17.4635,5.48958 17.0469,5.90625 C16.6406,6.32292 16.4375,7.02083 16.4375,8 C16.4375,8.97917 16.6406,9.67708 17.0469,10.0938 C17.4635,10.5104 17.8958,10.7188 18.3438,10.7188 C18.8021,10.7188 19.2396,10.5104 19.6563,10.0938 M16.4219,6.35938 C16.651,5.83854 16.8958,5.47917 17.1563,5.28125 C17.5625,4.98958 17.9479,4.84375 18.3125,4.84375 C19.0208,4.84375 19.612,5.13281 20.0859,5.71094 C20.5599,6.28906 20.7969,7.05208 20.7969,8 C20.7969,8.94792 20.5599,9.71094 20.0859,10.2891 C19.612,10.8672 19.0208,11.1563 18.3125,11.1563 C17.9479,11.1563 17.5625,11.0052 17.1563,10.7031 C16.8958,10.5156 16.651,10.1615 16.4219,9.64063 L16.4219,11 L15.9375,11 L15.9375,2.64063 L16.4219,2.64063 L16.4219,6.35938 M26.4844,6.01563 C26.1302,5.52604 25.6458,5.28125 25.0313,5.28125 C24.4167,5.28125 23.9323,5.52604 23.5781,6.01563 C23.224,6.49479 23.0469,7.15104 23.0469,7.98438 C23.0469,8.83854 23.224,9.51042 23.5781,10 C23.9323,10.4896 24.4167,10.7344 25.0313,10.7344 C25.6458,10.7344 26.1302,10.4896 26.4844,10 C26.8385,9.5 27.0156,8.82813 27.0156,7.98438 C27.0156,7.16146 26.8385,6.50521 26.4844,6.01563 M25.0313,4.84375 C25.7917,4.84375 26.3958,5.13021 26.8438,5.70313 C27.2917,6.27604 27.5156,7.03646 27.5156,7.98438 C27.5156,8.97396 27.2917,9.75521 26.8438,10.3281 C26.3958,10.901 25.7917,11.1875 25.0313,11.1875 C24.25,11.1875 23.6354,10.901 23.1875,10.3281 C22.75,9.75521 22.5313,8.97396 22.5313,7.98438 C22.5313,7.02604 22.7552,6.26302 23.2031,5.69531 C23.651,5.1276 24.2604,4.84375 25.0313,4.84375 M30.1406,3.28125 L30.1406,4.98438 L32.1719,4.98438 L32.1719,5.40625 L30.1406,5.40625 L30.1406,9.01563 C30.1406,9.47396 30.1979,9.79688 30.3125,9.98438 C30.5625,10.3802 30.9219,10.5781 31.3906,10.5781 L32.1719,10.5781 L32.1719,11 L31.4063,11 C30.9167,11 30.5,10.8568 30.1563,10.5703 C29.8125,10.2839 29.6406,9.76563 29.6406,9.01563 L29.6406,5.40625 L28.9219,5.40625 L28.9219,4.98438 L29.6406,4.98438 L29.6406,3.28125 L30.1406,3.28125 M38.2969,13.1719 L38.2969,13.5938 L32.5781,13.5938 L32.5781,13.1719 L38.2969,13.1719 M42.8438,5.15625 L42.8438,5.70313 C42.4896,5.50521 42.2708,5.39583 42.1875,5.375 C41.9375,5.32292 41.625,5.29167 41.25,5.28125 C40.6875,5.28125 40.2448,5.39063 39.9219,5.60938 C39.6719,5.79688 39.5469,6.11458 39.5469,6.5625 C39.5469,6.875 39.6667,7.11458 39.9063,7.28125 C40.1458,7.46875 40.4948,7.61458 40.9531,7.71875 L41.2969,7.78125 C41.8698,7.90625 42.3021,8.08333 42.5938,8.3125 C42.9375,8.58333 43.1146,8.92708 43.125,9.34375 C43.125,9.90625 42.9583,10.349 42.625,10.6719 C42.2708,10.9948 41.6927,11.1563 40.8906,11.1563 C40.4531,11.1563 40.1198,11.125 39.8906,11.0625 C39.6094,10.9896 39.3177,10.8958 39.0156,10.7813 L39.0156,10.1563 C39.4531,10.4063 39.7344,10.5521 39.8594,10.5938 C40.2135,10.6875 40.5677,10.7344 40.9219,10.7344 C41.4948,10.7344 41.9219,10.6146 42.2031,10.375 C42.4844,10.125 42.625,9.80729 42.625,9.42188 C42.625,9.08854 42.5313,8.84896 42.3438,8.70313 C42.0729,8.48438 41.6458,8.30729 41.0625,8.17188 L40.7188,8.09375 C40.2083,7.96875 39.8229,7.80208 39.5625,7.59375 C39.2292,7.32292 39.0625,6.99479 39.0625,6.60938 C39.0625,5.98438 39.263,5.53385 39.6641,5.25781 C40.0651,4.98177 40.5573,4.84375 41.1406,4.84375 C41.6406,4.84375 41.9844,4.86979 42.1719,4.92188 C42.401,4.98438 42.625,5.0625 42.8438,5.15625 M45.6719,3.28125 L45.6719,4.98438 L47.7031,4.98438 L47.7031,5.40625 L45.6719,5.40625 L45.6719,9.01563 C45.6719,9.47396 45.7292,9.79688 45.8438,9.98438 C46.0938,10.3802 46.4531,10.5781 46.9219,10.5781 L47.7031,10.5781 L47.7031,11 L46.9375,11 C46.4479,11 46.0313,10.8568 45.6875,10.5703 C45.3438,10.2839 45.1719,9.76563 45.1719,9.01563 L45.1719,5.40625 L44.4531,5.40625 L44.4531,4.98438 L45.1719,4.98438 L45.1719,3.28125 L45.6719,3.28125 M51.875,7.60938 C51.0729,7.60938 50.4974,7.75 50.1484,8.03125 C49.7995,8.3125 49.625,8.72396 49.625,9.26563 C49.625,9.79688 49.7708,10.1745 50.0625,10.3984 C50.3542,10.6224 50.6979,10.7344 51.0938,10.7344 C51.8438,10.7344 52.3854,10.4167 52.7188,9.78125 C53.0521,9.13542 53.2188,8.53125 53.2188,7.96875 L53.2188,7.60938 L51.875,7.60938 M53.7188,7.5625 L53.7188,11 L53.2188,11 L53.2188,9.35938 C52.9479,10.1615 52.5833,10.6719 52.125,10.8906 C51.7708,11.0677 51.4115,11.1563 51.0469,11.1563 C50.4531,11.1563 49.9844,10.9948 49.6406,10.6719 C49.2969,10.349 49.125,9.8776 49.125,9.25781 C49.125,8.63802 49.349,8.14063 49.7969,7.76563 C50.2448,7.39063 50.974,7.20313 51.9844,7.20313 L53.2188,7.20313 L53.2188,7.10938 C53.2188,6.57813 53.0625,6.14063 52.75,5.79688 C52.4583,5.45313 51.9635,5.28125 51.2656,5.28125 C50.9219,5.28125 50.5729,5.34375 50.2188,5.46875 C49.9896,5.55208 49.6875,5.71875 49.3125,5.96875 L49.3125,5.4375 C49.6354,5.23958 49.9375,5.09896 50.2188,5.01563 C50.6146,4.90104 50.9948,4.84375 51.3594,4.84375 C52.0781,4.84375 52.6667,5.05729 53.125,5.48438 C53.5208,5.84896 53.7188,6.54167 53.7188,7.5625 M56.7188,3.28125 L56.7188,4.98438 L58.75,4.98438 L58.75,5.40625 L56.7188,5.40625 L56.7188,9.01563 C56.7188,9.47396 56.776,9.79688 56.8906,9.98438 C57.1406,10.3802 57.5,10.5781 57.9688,10.5781 L58.75,10.5781 L58.75,11 L57.9844,11 C57.4948,11 57.0781,10.8568 56.7344,10.5703 C56.3906,10.2839 56.2188,9.76563 56.2188,9.01563 L56.2188,5.40625 L55.5,5.40625 L55.5,4.98438 L56.2188,4.98438 L56.2188,3.28125 L56.7188,3.28125 M65.2031,7.75 L65.2031,8.0625 L60.6406,8.0625 C60.6406,9.02083 60.8281,9.69792 61.2031,10.0938 C61.6198,10.5208 62.2344,10.7344 63.0469,10.7344 C63.2656,10.7344 63.5521,10.6875 63.9063,10.5938 C64.2604,10.5 64.6146,10.3594 64.9688,10.1719 L64.9688,10.6875 C64.6146,10.8438 64.2526,10.9609 63.8828,11.0391 C63.513,11.1172 63.2188,11.1563 63,11.1563 C62.0729,11.1563 61.375,10.9063 60.9063,10.4063 C60.3958,9.875 60.1406,9.09375 60.1406,8.0625 C60.1406,6.98958 60.3698,6.1875 60.8281,5.65625 C61.3073,5.11458 61.974,4.84375 62.8281,4.84375 C63.6094,4.84375 64.2031,5.10417 64.6094,5.625 C65.0052,6.16667 65.2031,6.875 65.2031,7.75 M64.7031,7.64063 C64.7031,6.79688 64.5104,6.18229 64.125,5.79688 C63.8125,5.45313 63.3802,5.28125 62.8281,5.28125 C62.2344,5.28125 61.7344,5.45833 61.3281,5.8125 C60.9531,6.14583 60.7292,6.75521 60.6563,7.64063 L64.7031,7.64063 M71.6406,13.1719 L71.6406,13.5938 L65.9219,13.5938 L65.9219,13.1719 L71.6406,13.1719 M73.2656,9.64063 L73.2656,13.2813 L72.7813,13.2813 L72.7813,4.98438 L73.2656,4.98438 L73.2656,6.35938 C73.4948,5.83854 73.7396,5.47917 74,5.28125 C74.4063,4.98958 74.7917,4.84375 75.1563,4.84375 C75.8646,4.84375 76.4557,5.13281 76.9297,5.71094 C77.4036,6.28906 77.6406,7.05208 77.6406,8 C77.6406,8.94792 77.4036,9.71094 76.9297,10.2891 C76.4557,10.8672 75.8646,11.1563 75.1563,11.1563 C74.7917,11.1563 74.4063,11.0052 74,10.7031 C73.7396,10.5156 73.4948,10.1615 73.2656,9.64063 M76.5,10.0938 C76.9167,9.67708 77.125,8.97917 77.125,8 C77.125,7.02083 76.9167,6.32292 76.5,5.90625 C76.0833,5.48958 75.6458,5.28125 75.1875,5.28125 C74.7396,5.28125 74.3073,5.48958 73.8906,5.90625 C73.4844,6.32292 73.2813,7.02083 73.2813,8 C73.2813,8.97917 73.4844,9.67708 73.8906,10.0938 C74.3073,10.5104 74.7396,10.7188 75.1875,10.7188 C75.6458,10.7188 76.0833,10.5104 76.5,10.0938 M79.6875,8.60938 L79.6875,4.98438 L80.1719,4.98438 L80.1719,8.57813 C80.1719,9.35938 80.2969,9.90885 80.5469,10.2266 C80.7969,10.5443 81.1667,10.7031 81.6563,10.7031 C82.2292,10.7031 82.7188,10.5313 83.125,10.1875 C83.5313,9.84375 83.7344,9.24479 83.7344,8.39063 L83.7344,4.98438 L84.2188,4.98438 L84.2188,11 L83.7344,11 L83.7344,9.875 C83.5573,10.2396 83.3229,10.5156 83.0313,10.7031 C82.6146,10.9948 82.151,11.1406 81.6406,11.1406 C81.0469,11.1406 80.5729,10.9375 80.2188,10.5313 C79.8646,10.1354 79.6875,9.49479 79.6875,8.60938 M90.4375,10.0938 C90.8542,9.67708 91.0625,8.97917 91.0625,8 C91.0625,7.02083 90.8542,6.32292 90.4375,5.90625 C90.0208,5.48958 89.5833,5.28125 89.125,5.28125 C88.6771,5.28125 88.2448,5.48958 87.8281,5.90625 C87.4219,6.32292 87.2188,7.02083 87.2188,8 C87.2188,8.97917 87.4219,9.67708 87.8281,10.0938 C88.2448,10.5104 88.6771,10.7188 89.125,10.7188 C89.5833,10.7188 90.0208,10.5104 90.4375,10.0938 M87.2031,6.35938 C87.4323,5.83854 87.6771,5.47917 87.9375,5.28125 C88.3438,4.98958 88.7292,4.84375 89.0938,4.84375 C89.8021,4.84375 90.3932,5.13281 90.8672,5.71094 C91.3411,6.28906 91.5781,7.05208 91.5781,8 C91.5781,8.94792 91.3411,9.71094 90.8672,10.2891 C90.3932,10.8672 89.8021,11.1563 89.0938,11.1563 C88.7292,11.1563 88.3438,11.0052 87.9375,10.7031 C87.6771,10.5156 87.4323,10.1615 87.2031,9.64063 L87.2031,11 L86.7188,11 L86.7188,2.64063 L87.2031,2.64063 L87.2031,6.35938 M93.6875,2.64063 L94.1719,2.64063 L94.1719,11 L93.6875,11 L93.6875,2.64063 M96.7188,4.98438 L97.2188,4.98438 L97.2188,11 L96.7188,11 L96.7188,4.98438 M96.7188,2.64063 L97.2188,2.64063 L97.2188,3.3125 L96.7188,3.3125 L96.7188,2.64063 M103.188,5.15625 L103.188,5.70313 C102.833,5.50521 102.615,5.39583 102.531,5.375 C102.281,5.32292 101.969,5.29167 101.594,5.28125 C101.031,5.28125 100.589,5.39063 100.266,5.60938 C100.016,5.79688 99.8906,6.11458 99.8906,6.5625 C99.8906,6.875 100.01,7.11458 100.25,7.28125 C100.49,7.46875 100.839,7.61458 101.297,7.71875 L101.641,7.78125 C102.214,7.90625 102.646,8.08333 102.938,8.3125 C103.281,8.58333 103.458,8.92708 103.469,9.34375 C103.469,9.90625 103.302,10.349 102.969,10.6719 C102.615,10.9948 102.036,11.1563 101.234,11.1563 C100.797,11.1563 100.464,11.125 100.234,11.0625 C99.9531,10.9896 99.6615,10.8958 99.3594,10.7813 L99.3594,10.1563 C99.7969,10.4063 100.078,10.5521 100.203,10.5938 C100.557,10.6875 100.911,10.7344 101.266,10.7344 C101.839,10.7344 102.266,10.6146 102.547,10.375 C102.828,10.125 102.969,9.80729 102.969,9.42188 C102.969,9.08854 102.875,8.84896 102.688,8.70313 C102.417,8.48438 101.99,8.30729 101.406,8.17188 L101.063,8.09375 C100.552,7.96875 100.167,7.80208 99.9063,7.59375 C99.5729,7.32292 99.4063,6.99479 99.4063,6.60938 C99.4063,5.98438 99.6068,5.53385 100.008,5.25781 C100.409,4.98177 100.901,4.84375 101.484,4.84375 C101.984,4.84375 102.328,4.86979 102.516,4.92188 C102.745,4.98438 102.969,5.0625 103.188,5.15625 M110.047,7.375 L110.047,11 L109.547,11 L109.547,7.40625 C109.547,6.625 109.417,6.07552 109.156,5.75781 C108.896,5.4401 108.5,5.28125 107.969,5.28125 C107.354,5.28125 106.87,5.45833 106.516,5.8125 C106.161,6.16667 105.984,6.76042 105.984,7.59375 L105.984,11 L105.5,11 L105.5,2.64063 L105.984,2.64063 L105.984,6.09375 C106.099,5.79167 106.307,5.52083 106.609,5.28125 C106.953,4.98958 107.443,4.84375 108.078,4.84375 C108.682,4.84375 109.161,5.05729 109.516,5.48438 C109.87,5.91146 110.047,6.54167 110.047,7.375 M117.156,7.75 L117.156,8.0625 L112.594,8.0625 C112.594,9.02083 112.781,9.69792 113.156,10.0938 C113.573,10.5208 114.188,10.7344 115,10.7344 C115.219,10.7344 115.505,10.6875 115.859,10.5938 C116.214,10.5 116.568,10.3594 116.922,10.1719 L116.922,10.6875 C116.568,10.8438 116.206,10.9609 115.836,11.0391 C115.466,11.1172 115.172,11.1563 114.953,11.1563 C114.026,11.1563 113.328,10.9063 112.859,10.4063 C112.349,9.875 112.094,9.09375 112.094,8.0625 C112.094,6.98958 112.323,6.1875 112.781,5.65625 C113.26,5.11458 113.927,4.84375 114.781,4.84375 C115.563,4.84375 116.156,5.10417 116.563,5.625 C116.958,6.16667 117.156,6.875 117.156,7.75 M116.656,7.64063 C116.656,6.79688 116.464,6.18229 116.078,5.79688 C115.766,5.45313 115.333,5.28125 114.781,5.28125 C114.188,5.28125 113.688,5.45833 113.281,5.8125 C112.906,6.14583 112.682,6.75521 112.609,7.64063 L116.656,7.64063 M122.5,5.40625 C122.417,5.36458 122.307,5.33333 122.172,5.3125 C122.047,5.29167 121.896,5.28125 121.719,5.28125 C121.104,5.28125 120.599,5.50521 120.203,5.95313 C119.88,6.31771 119.719,6.94271 119.719,7.82813 L119.719,11 L119.234,11 L119.234,4.98438 L119.719,4.98438 L119.719,6.10938 C119.885,5.78646 120.115,5.51563 120.406,5.29688 C120.802,4.99479 121.271,4.84375 121.813,4.84375 C121.958,4.84375 122.083,4.84896 122.188,4.85938 C122.292,4.85938 122.396,4.86979 122.5,4.89063 L122.5,5.40625"/>
</g>

<g fill="none" stroke="#000000" stroke-opacity="1" stroke-width="1" stroke-linecap="square" stroke-linejoin="bevel" transform="matrix(2,0,0,2,106.28,22)"
font-family="sans" font-size="11" font-weight="100" font-style="normal" 
>
</g>

<g fill="none" stroke="#000000" stroke-opacity="1" stroke-width="1" stroke-linecap="square" stroke-linejoin="bevel" transform="matrix(2,0,0,2,106.28,22)"
font-family="Ubuntu" font-size="11" font-weight="400" font-style="normal" 
>
</g>

<g fill="none" stroke="#000000" stroke-opacity="1" stroke-width="1" stroke-linecap="square" stroke-linejoin="bevel" transform="matrix(2,0,0,2,2.84217e-14,288)"
font-family="Ubuntu" font-size="11" font-weight="400" font-style="normal" 
>
</g>

<g fill="none" stroke="#000000" stroke-opacity="1" stroke-width="1" stroke-linecap="square" stroke-linejoin="bevel" transform="matrix(2,0,0,2,2.84217e-14,288)"
font-family="Ubuntu" font-size="11" font-weight="400" font-style="normal" 
>
</g>

<g fill="none" stroke="#000000" stroke-opacity="1" stroke-width="1" stroke-linecap="square" stroke-linejoin="bevel" transform="matrix(2,0,0,2,2.84217e-14,288)"
font-family="Ubuntu" font-size="11" font-weight="400" font-style="normal" 
>
</g>

<g fill="none" stroke="#000000" stroke-opacity="1" stroke-width="1" stroke-linecap="square" stroke-linejoin="round" transform="matrix(2,0,0,2,2.84217e-14,288)"
font-family="Ubuntu" font-size="11" font-weight="400" font-style="normal" 
>
<path vector-effect="none" fill-rule="evenodd" d="M322.06,-18 C323.15,-18 324.26,-18 325.38,-18 "/>
</g>

<g fill="none" stroke="#000000" stroke-opacity="1" stroke-width="1" stroke-linecap="square" stroke-linejoin="bevel" transform="matrix(2,0,0,2,2.84217e-14,288)"
font-family="Ubuntu" font-size="11" font-weight="400" font-style="normal" 
>
</g>

<g fill="none" stroke="#000000" stroke-opacity="1" stroke-width="1" stroke-linecap="square" stroke-linejoin="bevel" transform="matrix(2,0,0,2,2.84217e-14,288)"
font-family="Ubuntu" font-size="11" font-weight="400" font-style="normal" 
>
</g>

<g fill="#000000" fill-opacity="1" stroke="#000000" stroke-opacity="1" stroke-width="1" stroke-linecap="square" stroke-linejoin="round" transform="matrix(2,0,0,2,2.84217e-14,288)"
font-family="Ubuntu" font-size="11" font-weight="400" font-style="normal" 
>
<path vector-effect="none" fill-rule="evenodd" d="M325.38,-18 L325.38,-14.3705 L335.75,-18 L325.38,-21.6295 L325.38,-18"/>
</g>

<g fill="none" stroke="#000000" stroke-opacity="1" stroke-width="1" stroke-linecap="square" stroke-linejoin="bevel" transform="matrix(2,0,0,2,2.84217e-14,288)"
font-family="Ubuntu" font-size="11" font-weight="400" font-style="normal" 
>
</g>

<g fill="none" stroke="#000000" stroke-opacity="1" stroke-width="1" stroke-linecap="square" stroke-linejoin="bevel" transform="matrix(2,0,0,2,2.84217e-14,288)"
font-family="Ubuntu" font-size="11" font-weight="400" font-style="normal" 
>
</g>

<g fill="none" stroke="#000000" stroke-opacity="1" stroke-width="1" stroke-linecap="square" stroke-linejoin="bevel" transform="matrix(2,0,0,2,2.84217e-14,288)"
font-family="Ubuntu" font-size="11" font-weight="400" font-style="normal" 
>
</g>

<g fill="none" stroke="#000000" stroke-opacity="1" stroke-width="1" stroke-linecap="square" stroke-linejoin="bevel" transform="matrix(2,0,0,2,2.84217e-14,288)"
font-family="Ubuntu" font-size="11" font-weight="400" font-style="normal" 
>
</g>

<g fill="none" stroke="#000000" stroke-opacity="1" stroke-width="1" stroke-linecap="square" stroke-linejoin="round" transform="matrix(2,0,0,2,2.84217e-14,288)"
font-family="Ubuntu" font-size="11" font-weight="400" font-style="normal" 
>
<path vector-effect="none" fill-rule="evenodd" d="M211.89,-18 C219,-18 225.97,-18 232.59,-18 "/>
</g>

<g fill="none" stroke="#000000" stroke-opacity="1" stroke-width="1" stroke-linecap="square" stroke-linejoin="bevel" transform="matrix(2,0,0,2,2.84217e-14,288)"
font-family="Ubuntu" font-size="11" font-weight="400" font-style="normal" 
>
</g>

<g fill="none" stroke="#000000" stroke-opacity="1" stroke-width="1" stroke-linecap="square" stroke-linejoin="bevel" transform="matrix(2,0,0,2,2.84217e-14,288)"
font-family="Ubuntu" font-size="11" font-weight="400" font-style="normal" 
>
</g>

<g fill="#000000" fill-opacity="1" stroke="#000000" stroke-opacity="1" stroke-width="1" stroke-linecap="square" stroke-linejoin="round" transform="matrix(2,0,0,2,2.84217e-14,288)"
font-family="Ubuntu" font-size="11" font-weight="400" font-style="normal" 
>
<path vector-effect="none" fill-rule="evenodd" d="M232.59,-18 L232.59,-14.472 L242.67,-18 L232.59,-21.528 L232.59,-18"/>
</g>

<g fill="none" stroke="#000000" stroke-opacity="1" stroke-width="1" stroke-linecap="square" stroke-linejoin="bevel" transform="matrix(2,0,0,2,2.84217e-14,288)"
font-family="Ubuntu" font-size="11" font-weight="400" font-style="normal" 
>
</g>

<g fill="none" stroke="#000000" stroke-opacity="1" stroke-width="1" stroke-linecap="square" stroke-linejoin="bevel" transform="matrix(1,0,0,1,0,0)"
font-family="Ubuntu" font-size="11" font-weight="400" font-style="normal" 
>
</g>
</g>
</svg>
